#!OML:ASF F:\VICON\USERDATA\INSTALL\rory3\rory3.ASF
:FULLY-SPECIFIED
:DEGREES
27
root 0.9157294887711278 18.02578108794623 2.372944004841603 -3.705995562522822 -2.9722796430275773 1.4655952754817752
lfemur -4.3557246371218765 -2.8040949924044956 -26.567941551576194
ltibia 26.624848059385922
lfoot -13.462216555688137 3.0970951404099667
ltoes 0.7340452663545096
rfemur -25.91520476128858 0.2579393114004809 20.854456147438334
rtibia 67.17384300008015
rfoot -7.1482747940487465 -5.383213088365761
rtoes 6.168525329681299
lowerback 10.661995677379899 0.5192859520948404 -1.8724027922979525
upperback 0.5253492031158596 0.4831667942852993 0.50605187533062
thorax -5.322353446512183 0.2919326181160685 1.5283116947247875
lowerneck -16.24072808766209 -2.7353900355893686 -1.845917233318076
upperneck 21.764781809205857 -3.4247183495067843 0.4498926292533763
head 9.632294982792843 -1.7046595745409634 0.033783093543968426
lclavicle -1.962532391377741e-15 8.982760420895687e-16
lhumerus -30.337569797840434 0.475033263252951 82.7708009417154
lradius 23.807214588705534
lwrist 3.9625272809393346
lhand -26.294238017777033 23.96405373270772
lfingers 7.12502
lthumb 0.2615932908319434 53.945290884522606
rclavicle -1.962532391377741e-15 8.982760420895687e-16
rhumerus -28.55193933598182 -18.403017931426046 -79.83781917557427
rradius 24.58751481979006
rwrist 5.634839922422026
rhand -16.846622052196658 22.261707979149026
rfingers 7.12502
rthumb 9.383301770380678 -7.507192978705823
28
root 0.882727742850655 17.999129179749303 3.399678807100634 -3.520606016452079 -2.5916402607073485 1.892710976172467
lfemur -2.0048440478627567 -2.7022084850713957 -27.481491644973133
ltibia 25.947819952424506
lfoot -14.495345733391858 3.208968123289176
ltoes 0.515075997533327
rfemur -29.176403579226733 0.050460575149176456 20.507986605520582
rtibia 61.23643108730862
rfoot -8.803858435200567 -5.737439390988266
rtoes 2.833714702362002
lowerback 10.620325875382044 0.14017258010356493 -2.678253329288987
upperback 0.4744680427799557 -0.11405383163832639 0.5627731762015715
thorax -5.326050993235139 0.017864998104672125 2.014881655414213
lowerneck -16.308935486647048 -2.747337156676204 -2.047082065115087
upperneck 21.69625431895347 -3.4277494718429464 0.49909692640635733
head 9.614885821141376 -1.706748160929577 0.08089338708584212
lclavicle -2.1769651733637795e-15 7.005430454085444e-16
lhumerus -29.01710797039563 -1.3894676557456818 82.85230835889355
lradius 25.281761129781607
lwrist 5.042784009897383
lhand -26.778682228511485 23.89176086693293
lfingers 7.12502
lthumb -0.2062901659598398 53.871195149464185
rclavicle -2.17696517336378e-15 7.005430454085444e-16
rhumerus -29.250479648625912 -18.1066160739479 -79.77059223980547
rradius 24.71828584597186
rwrist 5.039094739781446
rhand -16.740743905698007 21.810412185518746
rfingers 7.12502
rthumb 9.485450507657161 -7.952331892241416
29
root 0.8322802700327352 17.971845165349396 4.277234995590272 -3.0312105095902018 -2.0206365496084877 2.4608296760260076
lfemur 0.8563092578881655 -2.68880359607443 -28.2752143438775
ltibia 23.01607670389056
lfoot -14.93965471023705 3.233336344761118
ltoes 2.1196496462930408
rfemur -31.108553911232462 0.7984016868658683 19.416116978739964
rtibia 52.00375313126693
rfoot -9.024721071418002 -8.061947931317308
rtoes 0.041062676864921155
lowerback 10.46191516047545 -0.19171757803295875 -3.380472156855155
upperback 0.49630908405878993 -0.6287803801200351 0.6061137355340174
thorax -5.224226786136173 -0.22218947680352075 2.4767709990790183
lowerneck -16.48854926098862 -2.7730748613545844 -2.2267544574330396
upperneck 21.556663532305837 -3.4606516296191954 0.6067618442335169
head 9.586050150425933 -1.716342536549973 0.1408046475869228
lclavicle -2.161654677456592e-15 7.150637288760248e-16
lhumerus -27.074082602635922 -3.302755919412835 82.93762264300354
lradius 26.88045489074615
lwrist 5.9663068598811
lhand -26.27533090528565 25.552023486036997
lfingers 7.12502
lthumb 0.2797476011578729 55.529949927316224
rclavicle -2.161654677456592e-15 7.150637288760248e-16
rhumerus -29.640377834958144 -17.9927241681246 -79.66880975051897
rradius 24.8898274882752
rwrist 4.640933639885554
rhand -16.716292202108033 22.08483066285279
rfingers 7.12502
rthumb 9.509023527715597 -7.677427683326951
30
root 0.7928906503829317 17.943992101490213 5.03267792836233 -2.353545238139587 -1.2186770673614964 3.031502736774541
lfemur 4.814809479654599 -2.5355112731210423 -28.793403758476906
ltibia 18.76724537853365
lfoot -15.216337844371854 2.5624303381973483
ltoes 0.7502528278427953
rfemur -31.660264912156283 2.372682463709439 17.96245682672354
rtibia 39.349468797449575
rfoot -7.884572629452939 -11.484670891400247
rtoes -1.9675306312148488
lowerback 10.114064231730689 -0.5261123839548217 -4.269959885521275
upperback 0.4086397375534532 -1.1648167760221826 0.6527863009475037
thorax -5.082624785823201 -0.468301767584103 3.052251570512909
lowerneck -16.645341170137826 -2.7813748274117365 -2.2402610082605974
upperneck 21.447053509305817 -3.4702213719082877 0.608545562290711
head 9.574157572204443 -1.7183985076898975 0.1495378970788533
lclavicle -2.172188764385194e-15 7.052723377785946e-16
lhumerus -25.4571912463005 -4.683134810373602 82.73389272619048
lradius 28.441294566061273
lwrist 7.027729712183643
lhand -26.404986991234026 26.468884729811375
lfingers 7.12502
lthumb 0.1544963324538109 56.443623598320514
rclavicle -2.172188764385194e-15 7.052723377785946e-16
rhumerus -30.16308295349623 -18.209949981042403 -79.38934819444563
rradius 24.74626351055354
rwrist 4.713128123105586
rhand -16.568029460604183 22.297153272685275
rfingers 7.12502
rthumb 9.652072419761751 -7.4563249757290055
31
root 0.6935241026778238 17.90945638567052 5.118039570796056 -1.7458549444550693 -0.39651250190287324 3.284935407714126
lfemur 8.433444794931997 -2.4378259614184734 -28.9740173714938
ltibia 14.25564644181059
lfoot -15.370770481927945 1.7211003856164273
ltoes -0.02671691799522513
rfemur -31.498766511583494 4.5764081056239085 16.091760109215844
rtibia 26.42379485894313
rfoot -7.144682606239239 -14.847170881475675
rtoes -2.807125558166454
lowerback 9.684290164948296 -0.8992483087460318 -4.977847065771971
upperback 0.31956170015876817 -1.7195470539254298 0.7197816184657266
thorax -4.910229146315638 -0.7293005388115092 3.4878475111975886
lowerneck -16.762181311446813 -2.7799217496139788 -2.222059226209959
upperneck 21.292276753895937 -3.482488678682498 0.6254217072693578
head 9.538484022609246 -1.7171617329959017 0.15492555263396765
lclavicle -2.4966451890331635e-15 4.0716003786508896e-16
lhumerus -23.854049781552284 -5.7130308234725025 82.43246558437028
lradius 29.722967417045332
lwrist 7.661440064266857
lhand -26.707409883935455 27.123734357761577
lfingers 7.12502
lthumb -0.13760792471641814 57.0935542690826
rclavicle -2.4966451890331635e-15 4.0716003786508896e-16
rhumerus -30.759171091420278 -19.24473326826781 -78.86535519218683
rradius 24.211499478973618
rwrist 5.289781969455218
rhand -16.774846021869866 23.03299698635938
rfingers 7.12502
rthumb 9.45247905733404 -6.727226236741019
32
root 0.6089207041501451 17.847906656205804 5.443979500886143 -1.2766251094917922 0.3466191194921415 3.634765586502042
lfemur 12.002176719153155 -2.5877224443771514 -29.359361989604242
ltibia 10.330220438287213
lfoot -15.757811764640223 0.5229624140850146
ltoes -2.0226587018875284
rfemur -31.33411543859404 6.494298296103764 14.013020242430805
rtibia 16.24807577246054
rfoot -7.288472116292545 -17.081904408272077
rtoes -4.602431210728923
lowerback 9.30621633191677 -1.2439547043020482 -5.732312028234983
upperback 0.19210526001542938 -2.2446594357112843 0.736441141666108
thorax -4.8001012649261785 -0.9744143595406742 3.858457353892257
lowerneck -16.85504442354548 -2.7895001262917454 -2.252367984687476
upperneck 21.189173735829797 -3.5031105187343274 0.6423866795455858
head 9.514940659205582 -1.7218597284589539 0.16120580770999157
lclavicle -2.9561119719957868e-15 -1.5759540805951348e-17
lhumerus -22.647887087586614 -6.450745078442565 82.10183730267107
lradius 30.819772851964117
lwrist 8.139086833687973
lhand -27.241547130325486 27.026037906554688
lfingers 7.12502
lthumb -0.6534788648356162 56.99222272034834
rclavicle -2.9561119719957868e-15 -1.5759540805951545e-17
rhumerus -31.439668728826746 -20.83448390245655 -78.20736558270434
rradius 23.32678550377388
rwrist 6.313379420102702
rhand -17.115855705905428 22.674243265830857
rfingers 7.12502
rthumb 9.123420083841852 -7.099287831131907
33
root 0.5419884853235788 17.786003220860202 8.46125485178679 -0.9620071907460643 1.2590166231160733 3.9615485050750627
lfemur 15.550853352977253 -2.776915259882151 -28.726057448189227
ltibia 10.340881231860248
lfoot -14.936510929044989 -0.23844836722030394
ltoes -4.316256762474492
rfemur -29.202044265133694 7.642002189656083 13.891342720726856
rtibia 12.594825096963994
rfoot -7.454210877841869 -16.447444714940097
rtoes -5.9821336063646875
lowerback 9.205964336384609 -1.310362040230844 -5.620841481723378
upperback 0.18152905132846314 -2.310435231646708 0.9130664359569621
thorax -4.681881827567574 -1.0119323802083804 4.237085916455401
lowerneck -16.93183077917876 -2.7983097705243223 -2.255714618019703
upperneck 21.157435446348277 -3.512087104838242 0.7526038965741892
head 9.525355302292354 -1.7231893394614093 0.19548620143447884
lclavicle -1.8209083202047754e-15 1.0284947224879158e-15
lhumerus -21.39516272708541 -6.081847063687706 82.01362864972906
lradius 31.92523139582935
lwrist 8.51497674265436
lhand -27.491648252397805 26.45368399461062
lfingers 7.12502
lthumb -0.8949940303827825 56.419270112546286
rclavicle -1.820908320204776e-15 1.0284947224879158e-15
rhumerus -31.6599727189569 -22.148204320841483 -77.14991640248995
rradius 22.610327214563764
rwrist 7.979439142224
rhand -17.548637391043034 22.10539745385898
rfingers 7.12502
rthumb 8.705795589746316 -7.690501868761321
34
root 0.4734499164499639 17.724543569597838 10.462646142709236 -0.9634944450416494 1.6390114475128827 3.7070426105618135
lfemur 17.638704306245568 -3.611676116366394 -28.140181372420805
ltibia 11.66067006929002
lfoot -13.758205625436442 -1.2534876752283584
ltoes -8.283631805625989
rfemur -28.61394595967334 7.2196692962907045 14.864484010486814
rtibia 13.674463349776115
rfoot -6.991819701500361 -13.433254125771965
rtoes -6.48958477569321
lowerback 9.225847835053662 -1.4005624789208442 -5.33269527141759
upperback 0.19835825382100092 -2.3918551991902928 1.1421417471036157
thorax -4.66201023359084 -1.0558890437898585 4.383130716838134
lowerneck -17.052644872604425 -2.7947298036215527 -2.291768562956557
upperneck 21.167685809083576 -3.4888807978212 0.6937728795632325
head 9.54836222741863 -1.7180186651357918 0.18013802723188352
lclavicle -1.585766920913869e-15 1.2438228570635347e-15
lhumerus -20.968532323418756 -5.683904629103684 82.07898755988118
lradius 32.477281272776075
lwrist 8.613450171095572
lhand -28.339786246496978 25.096318823669744
lfingers 7.12502
lthumb -1.71402464835076 55.059019195013214
rclavicle -1.5857669209138688e-15 1.2438228570635347e-15
rhumerus -32.09868226516576 -23.94672078021606 -76.07767479592319
rradius 21.632390735328784
rwrist 9.679652212259695
rhand -17.862244743977563 21.825741394677628
rfingers 7.12502
rthumb 8.403157730912177 -7.985351290982247
